<?xml version="1.0" standalone="no"?>
<!DOCTYPE svg PUBLIC "-//W3C//DTD SVG 20010904//EN"
 "http://www.w3.org/TR/2001/REC-SVG-20010904/DTD/svg10.dtd">
<svg version="1.0" xmlns="http://www.w3.org/2000/svg"
 width="512.000000pt" height="512.000000pt" viewBox="0 0 512.000000 512.000000"
 preserveAspectRatio="xMidYMid meet">

<g transform="translate(0.000000,512.000000) scale(0.100000,-0.100000)"
fill="#000000" stroke="none">
<path d="M1220 4538 c-168 -71 -511 -215 -762 -320 l-458 -190 0 -1790 c0
-1701 1 -1790 18 -1784 9 4 353 147 764 318 l748 312 0 711 0 710 1029 -1029
c907 -907 1032 -1028 1052 -1023 13 4 357 146 764 316 l740 309 3 1797 c1 992
-2 1795 -6 1793 -52 -20 -1048 -434 -1142 -474 -69 -29 -181 -77 -250 -106
l-125 -53 -5 -708 -5 -707 -1025 1025 c-564 564 -1027 1024 -1030 1024 -3 -1
-142 -59 -310 -131z"/>
</g>
</svg>
