<?xml version="1.0"?>
<svg width="512" height="512" xmlns="http://www.w3.org/2000/svg" xmlns:svg="http://www.w3.org/2000/svg" enable-background="new 0 0 512 512" version="1.1" xml:space="preserve">
 <g class="layer">
  <title>Layer 1</title>
  <path d="m513,404c0,0 0,0.5 -0.36,0.83c-11.09,4.92 -21.78,9.6 -32.55,14.1c-19.31,8.07 -38.67,16.03 -58,24.06c-20.63,8.57 -41.25,17.17 -61.5,25.6c-43.86,-43.36 -87.45,-86.4 -130.97,-129.5c-17.29,-17.12 -34.44,-34.36 -51.61,-51.6c-8.05,-8.08 -16,-16.28 -24.15,-24.73c-0.46,-0.69 -0.75,-1.1 -1.1,-1.46c-48.58,-48.56 -97.16,-97.11 -145.92,-145.91c-1.61,-1.63 -3.04,-3.02 -4.57,-4.6c-0.1,-0.21 -0.21,-0.64 0.11,-0.81c1.92,-0.84 3.52,-1.49 5.11,-2.18c13.27,-5.81 26.47,-11.79 39.83,-17.39c13.66,-5.71 27.53,-10.89 41.2,-16.58c21.99,-9.15 43.89,-18.52 66.38,-28.03c1.12,1.31 2.22,2.79 3.51,4.08c65.82,65.85 131.66,131.69 197.51,197.51c1.27,1.27 2.71,2.37 4.22,3.85c0.93,1.16 1.68,2.06 2.5,2.89c35.87,36.22 71.73,72.45 107.64,108.63c13.51,13.6 27.14,27.08 40.93,40.78c0.74,0.26 1.27,0.36 1.79,0.46z" fill="#FF5453" id="svg_1" opacity="1"/>
  <path d="m153.76,311.06c0.08,15.48 0.19,30.97 0.23,46.46c0.04,14.5 0.1,29 -0.11,43.49c-0.03,1.65 -1.36,4.19 -2.74,4.77c-26.55,11.22 -53.23,22.12 -79.81,33.27c-23.28,9.76 -46.46,19.75 -70.01,29.79c-0.32,-118.86 -0.32,-237.88 0.02,-357.36c0.57,-0.47 0.8,-0.48 1.03,-0.49c1.43,1.38 2.86,2.77 4.47,4.79c0.99,2.24 1.6,3.98 2.66,5.39c18.44,24.59 36.96,49.12 55.41,73.71c28.13,37.47 56.2,74.99 84.36,112.44c1.14,1.51 2.98,2.5 4.49,3.74z" fill="#DE4948" id="svg_4" opacity="1"/>
  <path d="m360.24,201.95c-0.08,-26.81 -0.16,-53.61 -0.24,-80.42c-0.01,-3.98 0,-7.97 0,-11.69c16,-6.95 31.63,-13.88 47.37,-20.53c17.85,-7.55 35.82,-14.8 53.69,-22.28c17.13,-7.17 34.2,-14.48 51.62,-21.88c0.32,119.2 0.32,238.56 0.32,358.38c-0.52,0.37 -1.05,0.27 -1.79,-0.39c-1.04,-2.16 -1.65,-3.91 -2.71,-5.32c-25.93,-34.58 -51.92,-69.12 -77.88,-103.68c-21.56,-28.72 -43.08,-57.47 -64.68,-86.16c-1.66,-2.2 -3.79,-4.03 -5.7,-6.03z" fill="#DE4948" id="svg_5" opacity="1"/>
  <path d="m2.27,110.79c-0.13,0.21 -0.36,0.22 -0.93,0.22c-0.34,-0.01 -0.34,-0.51 -0.34,-0.76c0.18,-0.24 0.36,-0.23 0.8,-0.16c0.26,0.06 0.37,0.49 0.47,0.7z" fill="#B43D3C" id="svg_6" opacity="1"/>
  <path d="m360.15,202.41c2,1.54 4.13,3.37 5.79,5.57c21.6,28.69 43.12,57.44 64.68,86.16c25.96,34.56 51.95,69.1 77.88,103.68c1.06,1.41 1.67,3.16 2.49,5.15c-13.57,-13.13 -27.2,-26.61 -40.71,-40.21c-35.91,-36.18 -71.77,-72.41 -107.64,-108.63c-0.82,-0.83 -1.57,-1.73 -2.5,-2.89c-0.13,-16.32 -0.11,-32.34 0.01,-48.83z" fill="#B43D3C" id="svg_7" opacity="1"/>
  <path d="m153.85,310.59c-1.6,-0.77 -3.44,-1.76 -4.58,-3.27c-28.16,-37.45 -56.23,-74.97 -84.36,-112.44c-18.45,-24.59 -36.97,-49.12 -55.41,-73.71c-1.06,-1.41 -1.67,-3.15 -2.49,-5.14c48.59,48.16 97.17,96.71 145.75,145.27c0.35,0.36 0.64,0.77 1.1,1.46c0.13,15.99 0.11,31.68 -0.01,47.83z" fill="#B43D3C" id="svg_8" opacity="1"/>
 </g>
</svg>