<?xml version="1.0"?>
<svg width="512" height="512" xmlns="http://www.w3.org/2000/svg" xmlns:svg="http://www.w3.org/2000/svg" enable-background="new 0 0 512 512" version="1.1" xml:space="preserve">
 <g class="layer">
  <title>Layer 1</title>
  <path d="m416.62,348.06c-3.59,1.97 -7.06,4.24 -10.8,5.86c-14.38,6.22 -28.82,12.32 -43.3,18.32c-12.15,5.03 -24.39,9.86 -36.57,14.82c-1.5,0.61 -2.89,1.49 -3.94,2.04c-43.15,-43 -86.25,-85.95 -129.73,-129.31c-1.72,-2.08 -2.92,-3.88 -4.41,-5.38c-28.2,-28.26 -56.44,-56.47 -84.65,-84.72c-1.52,-1.52 -2.88,-3.2 -4.31,-4.81c7.21,-3.24 14.38,-6.61 21.65,-9.69c16.5,-7.01 33.06,-13.86 49.58,-20.8c7.47,-3.14 14.92,-6.32 21.85,-9.26c43.08,42.86 86.21,85.77 129.82,129.04c30.04,29.98 59.61,59.59 89.36,89.45c1.94,1.64 3.7,3.04 5.45,4.44z" fill="#FF5453" id="svg_2" opacity="1"/>
  <path d="m416.75,347.6c-1.88,-0.94 -3.64,-2.34 -5.58,-4.38c-1.7,-2.94 -3.1,-5.33 -4.74,-7.54c-23.89,-32.06 -47.77,-64.13 -71.77,-96.1c-3.83,-5.11 -8.26,-9.77 -12.42,-14.63c-0.08,-18.99 -0.23,-37.98 -0.1,-56.97c0.01,-1.35 1.77,-3.32 3.18,-3.94c16.07,-7.11 32.2,-14.09 48.39,-20.93c14.14,-5.97 28.37,-11.73 43.1,-17.81c0.08,1.21 0.18,2.09 0.18,2.96c0.01,72.29 0.01,144.59 0,216.89c0,0.66 -0.07,1.33 -0.24,2.45z" fill="#DE4948" id="svg_3" opacity="1"/>
  <path d="m191.76,291.06c0.08,18.48 0.24,36.97 0.07,55.46c-0.01,1.49 -2.08,3.63 -3.69,4.33c-10.46,4.56 -21.08,8.75 -31.6,13.16c-16.23,6.81 -32.42,13.73 -48.65,20.55c-3.44,1.44 -6.98,2.66 -10.86,4.13c0,-73.5 0,-146.6 0.34,-219.98c10.12,12.27 20.09,24.69 29.65,37.42c20.35,27.06 40.48,54.3 60.75,81.42c1.04,1.39 2.65,2.35 3.99,3.51z" fill="#DE4948" id="svg_4" opacity="1"/>
  <path d="m191.85,290.59c-1.43,-0.69 -3.04,-1.65 -4.08,-3.04c-20.27,-27.12 -40.4,-54.36 -60.75,-81.42c-9.56,-12.73 -19.53,-25.15 -29.59,-37.89c0.07,-1.19 0.42,-2.2 1.12,-3.29c1.79,1.54 3.15,3.22 4.67,4.74c28.21,28.25 56.45,56.46 84.65,84.72c1.49,1.5 2.69,3.3 4.08,5.31c0.04,10.37 0.01,20.39 -0.1,30.87z" fill="#B43D3C" id="svg_5" opacity="1"/>
  <path d="m322.15,225.41c4.25,4.4 8.68,9.06 12.51,14.17c24,31.97 47.88,64.04 71.77,96.1c1.64,2.21 3.04,4.6 4.56,7.29c-29.57,-29.21 -59.14,-58.82 -88.85,-88.73c-0.13,-9.66 -0.11,-19.01 0.01,-28.83z" fill="#B43D3C" id="svg_6" opacity="1"/>
 </g>
</svg>